<?xml version="1.0" encoding="UTF-8" standalone="no"?>
<!-- Created with Inkscape (http://www.inkscape.org/) -->

<svg
   width="11.271244mm"
   height="11.271271mm"
   viewBox="0 0 11.271244 11.271271"
   version="1.1"
   id="svg5"
   xml:space="preserve"
   xmlns:inkscape="http://www.inkscape.org/namespaces/inkscape"
   xmlns:sodipodi="http://sodipodi.sourceforge.net/DTD/sodipodi-0.dtd"
   xmlns="http://www.w3.org/2000/svg"
   xmlns:svg="http://www.w3.org/2000/svg"><sodipodi:namedview
     id="namedview7"
     pagecolor="#505050"
     bordercolor="#eeeeee"
     borderopacity="1"
     inkscape:showpageshadow="0"
     inkscape:pageopacity="0"
     inkscape:pagecheckerboard="0"
     inkscape:deskcolor="#505050"
     inkscape:document-units="mm"
     showgrid="false" /><defs
     id="defs2" /><g
     inkscape:groupmode="layer"
     id="layer2"
     inkscape:label="Layer 2"
     transform="translate(33.889085,-152.76638)"><g
       id="g1064"
       transform="translate(74.312215,72.825749)"><path
         d="m -100.84589,83.856462 -1.43325,1.433248 m 1.43325,-1.433248 v -1.719791 l 1.719793,-1.719792 v 1.719792 h 1.719792 l -1.719792,1.719791 z"
         stroke="#8a47eb"
         stroke-width="0.9525"
         stroke-linecap="round"
         stroke-linejoin="round"
         id="path844-9"
         style="fill:none" /><path
         d="m -102.3765,80.416879 h -0.18918 c -1.0205,0 -2.01798,0.302604 -2.86639,0.8695 -0.84847,0.566923 -1.50974,1.372711 -1.90024,2.315554 -0.39052,0.942711 -0.49268,1.980142 -0.29361,2.980796 0.19908,1.000919 0.69046,1.920081 1.41201,2.641865 0.72154,0.721518 1.64084,1.212849 2.64175,1.411816 1.00066,0.199231 2.03809,0.0971 2.9808,-0.293423 0.942711,-0.390525 1.748632,-1.051983 2.315634,-1.900237 0.566737,-0.848519 0.869421,-1.845998 0.869421,-2.866496 0,-0.06297 0,-0.126206 0,-0.189177"
         stroke="#000000"
         stroke-width="0.9525"
         stroke-linecap="round"
         stroke-linejoin="round"
         id="path846-0"
         style="fill:none" /><path
         d="m -99.756599,86.149606 c -0.103717,0.507206 -0.342901,0.976842 -0.692151,1.359165 -0.34925,0.382323 -0.7956,0.662781 -1.29143,0.811741 -0.49583,0.148961 -1.02288,0.160867 -1.52479,0.0344 -0.50218,-0.126471 -0.96071,-0.386556 -1.32689,-0.752475 -0.366,-0.366183 -0.62611,-0.824706 -0.75258,-1.326885 -0.12647,-0.501915 -0.11459,-1.028965 0.0344,-1.524794 0.14899,-0.495829 0.42953,-0.942181 0.81182,-1.291431 0.38233,-0.349197 0.85196,-0.588354 1.35917,-0.692044"
         stroke="#000000"
         stroke-width="0.9525"
         stroke-linecap="round"
         stroke-linejoin="round"
         id="path848-4"
         style="fill:none" /></g></g></svg>
